<svg xmlns="http://www.w3.org/2000/svg" version="1.1" xmlns:xlink="http://www.w3.org/1999/xlink" xmlns:svgjs="http://svgjs.dev/svgjs" width="1389.000000pt" height="665.000000pt"><svg version="1.0" xmlns="http://www.w3.org/2000/svg" width="1389.000000pt" height="665.000000pt" viewBox="0 0 1389.000000 665.000000" preserveAspectRatio="xMidYMid meet">

<g transform="translate(0.000000,665.000000) scale(0.100000,-0.100000)" fill="#000000" stroke="none">
<path d="M6809 5789 c-86 -23 -196 -136 -423 -437 -171 -227 -493 -745 -715
-1152 -186 -340 -408 -803 -520 -1086 -51 -127 -338 -494 -531 -677 -135 -129
-264 -192 -305 -151 -37 37 -10 115 165 469 76 154 141 296 145 316 19 105
-130 253 -292 289 -26 6 -57 9 -69 6 -13 -4 -80 -78 -160 -178 -446 -559 -858
-1018 -911 -1018 -81 1 -65 126 44 339 180 355 576 856 793 1004 14 10 44 17
71 17 38 0 50 -5 72 -30 48 -54 117 -33 117 34 0 68 -138 220 -262 287 -57 31
-71 34 -143 34 -70 0 -88 -4 -145 -33 -122 -60 -289 -206 -456 -395 -315 -359
-607 -809 -700 -1083 -34 -98 -37 -211 -10 -294 40 -121 131 -246 207 -285 42
-22 108 -29 155 -16 131 35 381 262 647 586 97 117 346 448 374 496 19 32 39
40 28 12 -4 -10 -22 -74 -41 -143 -40 -146 -58 -282 -45 -340 18 -82 137 -203
246 -251 42 -18 61 -21 129 -16 174 12 325 104 539 327 68 72 127 130 129 130
3 0 -3 -30 -14 -68 -45 -159 -78 -367 -80 -509 -1 -58 3 -80 25 -125 70 -144
314 -299 411 -262 23 9 20 62 -5 118 -30 68 -33 135 -14 270 23 168 47 262
125 496 331 992 1067 2241 1727 2932 80 83 93 102 93 131 0 80 -122 196 -255
242 -37 13 -121 21 -146 14z"></path>
<path d="M7408 4985 c-93 -31 -270 -223 -436 -471 -142 -212 -162 -292 -89
-371 39 -43 58 -32 214 118 153 147 323 288 486 405 59 42 100 78 103 91 4 14
-2 36 -15 57 -30 48 -124 132 -180 161 -42 21 -50 22 -83 10z"></path>
<path d="M9246 4104 c-46 -134 -135 -220 -296 -282 -24 -9 -24 -10 15 -21 124
-34 240 -146 286 -276 14 -40 19 -46 24 -30 49 149 152 260 286 305 56 19 55
21 -11 39 -101 27 -228 150 -259 251 -21 65 -27 67 -45 14z"></path>
<path d="M6930 3334 c-66 -7 -155 -27 -198 -46 -53 -22 -172 -98 -192 -123
-14 -17 -15 -11 -20 64 l-5 82 -197 0 c-109 0 -203 -1 -208 -1 -7 0 -9 -251
-8 -747 l3 -748 218 -3 217 -2 0 408 c0 487 6 529 83 634 69 93 237 134 362
87 69 -26 118 -75 147 -148 22 -55 23 -66 26 -519 l3 -462 217 2 217 3 6 445
c3 302 9 456 17 480 45 136 164 220 312 220 153 0 253 -91 280 -251 5 -37 10
-243 10 -482 l0 -417 215 2 216 3 -1 500 c0 457 -2 507 -19 580 -26 106 -49
158 -103 228 -98 124 -217 186 -397 207 -224 25 -438 -41 -587 -182 l-52 -49
-53 57 c-69 73 -139 118 -231 147 -71 24 -205 38 -278 31z"></path>
<path d="M9054 3311 c-2 -2 -4 -341 -4 -753 l0 -748 218 2 217 3 3 747 2 747
-216 3 c-119 2 -218 1 -220 -1z"></path>
<path d="M9743 3307 c-3 -4 116 -168 263 -364 147 -196 268 -364 271 -372 2
-9 -74 -116 -173 -246 -97 -126 -226 -294 -286 -372 l-109 -143 238 0 238 0
165 224 c91 124 170 225 175 225 6 0 82 -101 170 -224 l160 -225 242 0 c134 0
243 3 243 8 0 4 -33 50 -73 102 -40 52 -168 222 -285 377 l-213 281 257 339
c141 186 266 348 276 360 11 12 18 25 15 30 -3 4 -106 7 -230 5 l-226 -3 -158
-214 c-87 -117 -161 -214 -164 -214 -3 -1 -41 46 -83 104 -42 58 -111 153
-153 211 -43 59 -82 108 -88 111 -21 8 -467 8 -472 0z"></path>
</g>
</svg><style>@media (prefers-color-scheme: light) { :root { filter: none; } }
@media (prefers-color-scheme: dark) { :root { filter: none; } }
</style></svg>